<svg width="387" height="543" viewBox="0 0 387 543" fill="none" xmlns="http://www.w3.org/2000/svg">
<path d="M330.08 210C326.92 204.3 322.5 199.66 317.23 195.88C314.97 194.26 312.57 192.77 310.06 191.61C307.76 190.55 305.25 189.89 302.78 189.28C300.04 188.6 297.25 187.83 294.46 187.74C290.72 187.63 286.95 188.04 283.22 188.41C281.09 188.62 278.9 188.94 276.91 189.66C274.08 190.69 271.41 192.17 268.65 193.4C265.47 194.81 262.77 196.92 260.2 199.2C257.42 201.65 254.99 204.39 252.72 207.35C250.45 210.31 248.55 213.43 247.22 216.87C246.31 219.21 245.66 221.68 245.1 224.13C244.38 227.29 243.58 230.48 243.31 233.7C242.86 239.25 243.37 244.76 245.08 250.12C245.93 252.78 246.3 255.63 247.42 258.16C249.63 263.11 252.36 267.76 256.13 271.78C262.09 278.15 268.99 282.9 277.32 285.66C281.38 287 285.47 287.65 291.69 287.6C294.07 287.63 298.29 287 302.47 285.64C306.43 284.34 310.13 282.6 313.62 280.37C318.02 277.55 321.78 273.98 325.09 269.99C328.06 266.4 330.3 262.35 332.3 258.1C333.99 254.53 334.82 250.77 335.9 247.08C336.69 244.39 336.92 241.44 336.88 238.61C336.82 234.17 336.31 229.73 336 225.29C336 225.18 335.98 225.06 335.94 224.95C335.01 222.18 334.17 219.38 333.12 216.66C332.24 214.39 331.27 212.13 330.09 210H330.08ZM294.16 284.54C292.87 284.5 291.56 285.07 290.28 285.02C288.08 284.94 285.88 284.61 283.69 284.31C283.44 284.28 283.15 283.76 283.09 283.43C282.97 282.82 282.99 282.18 282.99 281.55C282.99 266.86 282.99 252.16 282.99 237.47H282.98C282.98 222.72 282.98 207.97 282.98 193.22C282.98 191.59 283.82 190.64 285.72 190.57C288.87 190.46 292.03 190.49 295.18 190.55C296.43 190.57 297.13 191.34 297.13 192.64C297.13 194.13 297.13 195.62 297.13 197.12C297.13 225.19 297.11 253.26 297.17 281.32C297.17 283.7 296.4 284.63 294.18 284.56L294.16 284.54Z" fill="#FFFFFF"/>
<path d="M228.76 218.73C227.17 214.97 225.56 211.17 223.4 207.73C221.59 204.84 219.06 202.37 216.71 199.84C213.77 196.67 210 194.59 206.26 192.59C204.28 191.53 202.02 190.91 199.82 190.33C196.88 189.56 193.9 188.8 190.89 188.46C188.04 188.13 185.12 188.16 182.25 188.35C179.03 188.56 175.82 189.08 172.62 189.59C171.36 189.79 170.07 190.14 168.94 190.71C166.64 191.86 164.45 193.24 162.19 194.48C157.73 196.93 153.97 200.26 150.72 204.08C148.24 207 146.14 210.25 144.06 213.47C143.07 215.01 142.4 216.78 141.76 218.51C141.21 219.98 140.87 221.52 140.52 223.05C139.88 225.79 139.22 228.53 138.73 231.3C138.47 232.76 138.45 234.28 138.49 235.76C138.58 239.26 138.48 242.8 139.01 246.23C139.48 249.23 140.6 252.15 141.63 255.03C142.61 257.77 143.5 260.64 145.05 263.06C147.38 266.71 149.98 270.26 152.94 273.4C157.61 278.35 163.14 282.15 169.59 284.67C172.91 285.97 176.27 286.8 179.72 287.21C183.97 287.71 188.28 287.76 192.5 286.59C194.4 286.06 196.45 285.97 198.26 285.25C200.92 284.19 203.42 282.72 206.02 281.47C210.04 279.53 213.43 276.68 216.55 273.61C218.97 271.23 220.81 268.28 222.95 265.62C225.17 262.86 226.5 259.64 227.73 256.39C228.6 254.08 229.28 251.69 229.89 249.3C230.53 246.78 231.15 244.24 231.47 241.67C231.73 239.64 231.52 237.55 231.52 235.48C231.88 229.69 231.02 224.06 228.76 218.72V218.73ZM191.89 196.51C191.89 224.74 191.89 252.97 191.89 281.19C191.89 284.05 191.63 284.36 188.77 284.43C186.19 284.49 183.61 284.49 181.03 284.43C178.48 284.37 177.8 283.63 177.8 281.19C177.8 251.87 177.8 222.55 177.8 193.24C177.8 192.73 177.87 192.23 177.91 191.71C182.59 189.91 187.08 190.04 191.88 191.7C191.88 193.22 191.88 194.87 191.88 196.51H191.89Z" fill="#FFFFFF"/>
<path d="M67.39 277.63C69.9 276.5 71.68 274.46 73.17 272.26C74.14 270.81 75.12 269.08 75.24 267.41C75.48 264.3 75.99 261.15 74.5 258.01C73.26 255.41 71.72 253.22 69.54 251.4C67.33 249.56 64.72 248.79 61.98 248.02C58.67 247.1 55.59 247.68 52.64 248.71C50.02 249.62 47.63 251.24 45.85 253.52C44.05 255.82 42.38 258.16 42.28 261.27C42.18 264.29 41.63 267.35 43.31 270.16C44.15 271.57 44.72 273.27 45.87 274.35C49.11 277.38 52.76 279.89 56.96 281.52C60.15 282.76 63.24 284.32 66.5 285.27C69.86 286.24 73.35 286.96 76.83 287.24C84.84 287.89 92.86 287.77 100.8 286.33C102.46 286.03 104.11 285.57 105.73 285.1C107.37 284.62 108.99 284.06 110.6 283.49C111.78 283.07 113.09 282.79 114.09 282.1C116.68 280.3 119.21 278.41 121.61 276.37C124.12 274.24 126.03 271.55 127.38 268.55C128.32 266.46 129.34 264.27 129.6 262.04C130.02 258.45 130.31 254.71 129.77 251.17C129.32 248.22 127.89 245.3 126.34 242.69C124.81 240.12 122.81 237.72 120.61 235.69C117.4 232.73 113.45 230.89 109.37 229.22C105.01 227.44 100.47 226.21 95.91 225.82C86.46 225 77 225.06 67.79 228.23C63.63 229.66 59.58 231.25 55.35 233.67C55.47 232.13 55.52 230.89 55.68 229.67C55.81 228.66 56.16 227.68 56.28 226.67C56.67 223.27 56.99 219.86 57.37 216.45C57.53 215.01 58.55 214.42 59.94 214.87C60.59 215.08 61.24 215.36 61.91 215.41C66.3 215.75 70.69 216.17 75.09 216.3C81.73 216.5 88.34 216.58 94.99 215.81C99.95 215.23 104.52 214.17 108.91 211.72C112.56 209.68 115.64 207.08 118.16 203.9C120.16 201.37 121.63 198.42 123.36 195.68C124.68 193.6 125.45 191.36 125.59 188.7C125.04 188.7 124.59 188.62 124.18 188.71C121.71 189.24 119.27 190.01 116.77 190.32C112.58 190.84 108.36 191.33 104.16 191.35C99.09 191.37 94.01 190.92 88.94 190.59C83.31 190.23 77.68 189.79 72.05 189.39C71.88 189.38 71.71 189.36 71.54 189.33C67.45 188.71 63.37 188.06 59.27 187.47C58.01 187.29 57.51 187.88 57.41 189.24C57.12 193.34 56.65 197.42 56.25 201.51C56.22 201.85 56.13 202.19 56.09 202.53C55.52 207.09 54.88 211.65 54.4 216.22C53.93 220.68 53.61 225.16 53.22 229.63C53.2 229.86 53.12 230.08 53.09 230.3C52.84 232.03 52.47 233.76 52.4 235.5C52.35 236.78 54.27 237.57 55.39 236.88C56.62 236.12 57.82 235.26 59.13 234.67C61.79 233.48 64.49 232.36 67.23 231.38C70.08 230.37 72.94 229.15 75.9 228.76C80.28 228.18 84.71 227.42 89.19 228.29C90.14 228.47 90.43 228.81 90.4 229.73C90.34 231.39 90.4 233.06 90.4 234.72C90.4 250.85 90.4 266.98 90.43 283.11C90.43 284.72 89.91 285.41 88.23 285.29C83.84 284.99 79.44 284.86 75.06 284.49C72.49 284.28 69.94 283.74 67.39 283.34C67.23 283.31 67.08 283.2 66.92 283.14C65.44 282.57 63.94 282.06 62.5 281.41C61.99 281.18 61.63 280.63 61.2 280.23C61.69 279.96 62.16 279.63 62.68 279.43C64.24 278.82 65.86 278.34 67.38 277.65L67.39 277.63Z" fill="#FFFFFF"/>
<path d="M101.43 35.91L101.41 36.48C102.33 36.63 103.25 36.75 104.15 36.94C105.39 37.2 106.42 37.44 106.42 39.25C106.36 82.99 106.37 126.73 106.37 170.47C106.37 172.25 106.33 174.03 106.37 175.81C106.4 176.96 105.98 177.5 104.8 177.48C103.43 177.46 102.05 177.52 100.68 177.58C100.54 177.58 100.41 177.75 100.17 177.91C100.28 178.38 100.4 178.85 100.51 179.3H155.23C155.29 178.61 155.38 178.05 155.38 177.49C155.38 159.41 155.38 141.33 155.35 123.24C155.35 122.69 155.02 122.14 154.85 121.6C154.42 121.99 153.94 122.34 153.58 122.79C153.39 123.03 153.36 123.43 153.32 123.76C153.09 125.94 153.08 128.08 152.42 130.28C151.33 133.93 151.06 137.82 150.26 141.56C149.43 145.42 148.38 149.23 147.41 153.05C146.42 156.95 145.35 160.82 143.34 164.36C141.67 167.29 140.18 170.35 138.24 173.1C136.13 176.08 133.21 177.94 129.28 177.69C127.87 177.6 127.34 177.19 127.35 175.65C127.41 155.96 127.39 136.27 127.39 116.58C127.39 114.28 127.45 111.99 127.38 109.69C127.34 108.55 127.9 108.1 128.8 108.41C129.93 108.8 131.14 109.32 131.99 110.12C134.91 112.88 136.6 116.34 137.39 120.28C137.78 122.22 138.4 124.1 138.82 126.03C139.32 128.29 139.82 130.55 140.15 132.84C140.62 136.03 140.93 139.25 141.32 142.54L143 142.43V70.89C142.76 70.84 142.53 70.78 142.29 70.73C141.95 71.71 141.44 72.66 141.3 73.66C140.82 77.04 140.67 80.47 140.02 83.81C139.38 87.07 138.21 90.23 137.41 93.46C136.36 97.65 134.66 101.46 131.18 104.19C130.37 104.82 129.22 105.01 128.22 105.4C127.95 104.49 127.69 103.58 127.42 102.67C127.4 102.62 127.41 102.56 127.41 102.5C127.41 81.61 127.41 60.71 127.38 39.82C127.38 38.23 127.95 37.49 129.58 37.48C132.35 37.46 135.25 37.14 137.66 38.7C139 39.57 140.71 40.19 141.37 42.01C141.92 43.53 142.77 44.95 143.44 46.43C144.39 48.53 145.45 50.6 146.19 52.77C147.12 55.48 147.84 58.27 148.53 61.06C149.5 65 150.35 68.96 151.25 72.92C151.38 73.48 151.42 74.05 151.55 74.61C152.08 77.07 152.72 79.51 153.15 81.99C153.64 84.81 153.95 87.66 154.35 90.61C155 90.56 155.54 90.51 156.12 90.46C156.17 90.11 156.22 89.89 156.22 89.67C156.22 72.34 156.21 55 156.23 37.67C156.23 36.11 155.49 35.72 154.1 35.72C137.11 35.72 120.12 35.69 103.14 35.67C102.57 35.67 102 35.81 101.44 35.89L101.43 35.91Z" fill="#FFFFFF"/>
<path d="M181.26 36.24C178.2 37.87 175.88 40.25 173.82 43.08C171.5 46.27 169.62 49.65 168.44 53.34C166.86 58.3 165.64 63.39 164.39 68.45C163.87 70.57 163.54 72.76 163.37 74.93C162.92 80.5 162.33 86.08 162.28 91.67C162.14 105.93 161.71 120.21 163.19 134.44C163.48 137.25 163.13 140.04 164.01 142.89C164.91 145.82 164.82 149.05 165.27 152.13C165.57 154.19 165.84 156.28 166.49 158.24C167.55 161.49 168.98 164.62 170.12 167.85C171.3 171.21 173.31 173.93 176.03 176.13C179.64 179.05 183.7 180.74 188.45 180.49C189.6 180.43 190.77 180.61 191.88 180.39C193.41 180.1 195.03 179.79 196.36 179.05C200.94 176.49 203.75 172.42 205.66 167.29C206.16 167.49 206.89 167.54 207.14 167.91C208.57 170.05 209.86 172.29 211.25 174.46C212.34 176.16 213.51 177.82 214.91 179.89C215.26 178.14 215.69 176.91 215.72 175.67C215.76 173.66 215.42 171.65 215.42 169.64C215.39 151.79 215.41 133.94 215.4 116.09C215.4 114.52 215.79 113.41 217.67 113.42C218.73 113.42 219.4 112.95 219.22 111.89H190.52L190.25 113.2C190.57 113.32 190.77 113.43 190.98 113.47C192.35 113.67 194.4 113.39 194.94 114.16C195.65 115.18 195.18 117.02 195.21 118.51C195.21 118.8 195.21 119.08 195.21 119.37C195.21 137.56 195.26 155.76 195.13 173.95C195.1 177.73 192.59 179.19 189.15 179.29C186.53 179.36 184.22 176.54 184.22 173.7C184.2 159.58 184.17 145.46 184.17 131.34C184.17 103.67 184.15 76.01 184.19 48.34C184.19 45.28 183.76 42.19 185.17 39.2C186.18 37.06 188.78 35.08 190.87 35.85C193.61 36.86 196 38.34 197.32 41.11C198.67 43.95 200.18 46.72 201.35 49.63C202.76 53.14 204.08 56.71 205.08 60.35C206.01 63.72 206.6 67.2 207.1 70.66C207.94 76.53 208.55 82.43 209.33 88.31C209.56 90.08 210.02 91.82 210.38 93.57C212.03 93.37 212.05 92.36 212.03 91.26C211.86 81.98 211.7 72.7 211.57 63.41C211.47 56.7 211.4 49.99 211.34 43.28C211.32 40.84 211.34 38.4 211.34 35.96C211.08 35.89 210.83 35.81 210.57 35.74C208.12 38.52 205.67 41.3 203.24 44.09C202.47 44.97 201.78 45.28 201.06 44.05C200.04 42.29 199.2 40.36 197.9 38.83C193.31 33.46 187.24 33.04 181.28 36.21L181.26 36.24Z" fill="#FFFFFF"/>
<path d="M95.19 179.27C95.26 178.78 95.35 178.45 95.36 178.11C95.57 170.84 95.93 163.57 95.92 156.3C95.92 145.48 95.64 134.66 95.48 123.85C95.47 123.05 95.53 122.24 95.46 121.44C95.41 120.87 95.19 120.32 95.04 119.76H94.6C94.19 121.3 93.63 122.81 93.4 124.38C92.9 127.73 92.57 131.1 92.17 134.46C92.16 134.57 92.12 134.68 92.1 134.8C91.2 138.71 90.33 142.62 89.4 146.53C88.71 149.44 88.13 152.38 87.19 155.21C86.1 158.51 84.78 161.74 83.38 164.92C82.13 167.78 80.85 170.65 79.21 173.29C77.73 175.67 75.88 177.61 72.46 177.54C67.93 177.44 67.56 178.22 67.56 172.71C67.57 130.41 67.56 88.11 67.57 45.81C67.57 43.8 67.59 41.79 67.6 39.78C67.6 38.51 67.92 37.52 69.43 37.39C71.29 37.23 73.15 37.06 75 36.82C75.49 36.76 75.95 36.43 76.42 36.23C75.93 35.98 75.45 35.52 74.96 35.52C64.34 35.47 53.73 35.47 43.11 35.49C42.52 35.49 41.93 35.75 41.33 35.88L41.36 36.43C42.1 36.58 42.85 36.74 43.6 36.87C46.31 37.34 46.34 37.33 46.58 39.97C46.67 41.01 46.6 42.07 46.6 43.13C46.6 85.77 46.6 128.42 46.62 171.06C46.62 172.6 46.8 174.14 46.77 175.68C46.75 176.66 46.28 177.4 45.12 177.41C44.03 177.42 42.94 177.45 41.85 177.5C40.69 177.56 40.13 178.03 40.71 179.28H95.2L95.19 179.27Z" fill="#FFFFFF"/>
<path d="M309.64 36.6C311.13 36.6 312.61 36.6 314.44 36.6C313.13 34.98 281.26 35 279.95 36.46C281.2 36.67 282.46 36.66 283.72 36.67C285.26 36.68 285.97 37.49 285.98 39C286.01 45.71 286.07 52.42 286.07 59.14C286.07 69.13 285.99 79.11 285.98 89.1C285.95 117.79 285.93 146.49 285.9 175.18C285.9 177.18 284.11 178.47 282.1 178.09C281.56 177.99 280.91 178.42 280.31 178.6L280.48 179.27H334.98V119.7C333.63 119.32 333.15 119.69 333.05 120.95C332.84 123.55 332.53 126.14 332.14 128.72C331.54 132.68 330.9 136.65 330.17 140.59C329.52 144.11 328.75 147.61 327.97 151.1C327.66 152.48 327.23 153.84 326.76 155.17C325.93 157.53 324.87 159.83 324.18 162.23C323.15 165.78 321.49 168.96 319.5 172.06C316.96 176.01 313.65 178.04 308.85 177.53C307.44 177.38 306.95 176.86 306.96 175.55C306.98 173.08 306.96 170.62 306.96 168.15C306.96 125.22 306.96 82.29 306.96 39.36C306.96 36.76 307.1 36.62 309.65 36.61L309.64 36.6Z" fill="#FFFFFF"/>
<path d="M219.37 179.38C225.01 179.38 230.57 179.38 236.13 179.38C237.39 179.38 237.27 178.58 237.23 177.69C236.92 177.6 236.66 177.48 236.4 177.44C232.99 176.99 230.17 173.64 230.17 170.46C230.17 167.29 230.62 164.11 230.96 160.94C231.33 157.43 231.82 153.93 232.19 150.42C232.3 149.32 232.56 148.46 233.83 148.46C238.42 148.43 243.01 148.43 247.6 148.43C248.57 148.43 249.02 148.92 249.12 149.9C249.35 152.05 249.77 154.19 249.93 156.34C250.38 162.1 250.8 167.86 251.1 173.63C251.29 177.26 251.19 177.3 247.49 177.57C246.29 177.66 245.99 178.13 246.48 179.28C246.86 179.3 247.25 179.35 247.64 179.34C253.55 179.33 259.46 179.34 265.37 179.27C267.18 179.25 268.99 178.94 270.81 178.84C272.12 178.77 273.55 178.54 274.74 178.93C275.96 179.33 276.38 178.89 277.18 177.7C276.02 177.58 275.16 177.59 274.37 177.38C273.93 177.27 273.3 176.87 273.22 176.5C272.82 174.62 272.54 172.71 272.29 170.8C271.9 167.7 271.56 164.58 271.21 161.47C270.89 158.64 270.59 155.81 270.3 152.97C269.65 146.72 268.97 140.48 268.36 134.22C267.86 129.04 267.51 123.85 266.97 118.68C266.51 114.26 265.87 109.86 265.33 105.45C264.92 102.13 265.18 98.8 264.41 95.43C263.48 91.31 263.53 86.97 263.18 82.72C262.75 77.37 262.35 72.03 261.93 66.68C261.93 66.62 261.93 66.57 261.92 66.51C261.33 61.47 260.69 56.44 260.18 51.39C259.72 46.9 259.4 42.39 259.01 37.89C258.98 37.55 258.99 37.14 258.81 36.89C258.46 36.41 258 35.66 257.57 35.65C254.16 35.55 250.74 35.59 247.44 35.59C247.02 36.94 246.55 38 246.36 39.11C245.61 43.51 244.94 47.92 244.26 52.32C243.91 54.61 243.6 56.9 243.26 59.2C242.59 63.79 241.9 68.37 241.24 72.96C240.58 77.57 239.96 82.19 239.31 86.8C238.67 91.3 238.02 95.8 237.34 100.3C236.68 104.73 235.97 109.16 235.3 113.59C234.61 118.16 233.93 122.73 233.27 127.31C232.9 129.83 232.59 132.35 232.23 134.86C231.61 139.13 230.97 143.39 230.35 147.66C229.66 152.39 229.06 157.13 228.29 161.84C227.72 165.34 227 168.82 226.26 172.29C225.81 174.39 222.62 177.25 220.47 177.45C219.01 177.58 218.9 178.21 219.37 179.34V179.38ZM233.17 145.02C233.74 141.39 234.36 137.76 234.96 134.13C234.99 133.96 235.05 133.8 235.07 133.63C235.46 130.47 235.8 127.29 236.25 124.14C236.74 120.71 237.32 117.3 237.87 113.88C237.92 113.6 237.98 113.32 238.01 113.03C238.46 109.35 238.87 105.66 239.36 101.98C239.96 97.53 240.65 93.09 241.29 88.65C241.62 86.35 241.91 84.04 242.23 81.74C242.31 81.15 242.45 80.56 242.62 79.73C244.82 82.84 243.92 86.03 244.16 89.04C244.61 94.9 244.92 100.77 245.33 106.63C245.62 110.72 245.95 114.8 246.34 118.88C246.8 123.71 247.42 128.52 247.82 133.35C248.13 137.18 248.21 141.02 248.39 144.86C248.44 145.96 248.03 146.57 246.81 146.54C242.74 146.47 238.67 146.43 234.6 146.42C233.61 146.42 233.01 146.08 233.18 145.03L233.17 145.02Z" fill="#FFFFFF"/>
<path d="M333.35 306.59C333.91 306.57 334.45 306.08 335 305.8C334.42 305.37 333.88 304.63 333.27 304.57C331.57 304.4 329.83 304.51 328.11 304.51C234.9 304.51 141.68 304.51 48.47 304.51C46.4 304.51 44.34 304.45 42.27 304.55C41.91 304.57 41.33 305.16 41.3 305.53C41.28 305.87 41.79 306.4 42.19 306.57C42.63 306.75 43.21 306.62 43.72 306.62C91.76 306.62 139.8 306.62 187.85 306.62C233.6 306.61 279.34 306.61 325.09 306.62C327.84 306.62 330.6 306.68 333.35 306.61V306.59Z" fill="#FFFFFF"/>
<path d="M334.98 19.49C335.01 18.88 335.04 18.38 335.07 17.73H224.23C224.29 18.41 224.34 18.9 224.39 19.49H334.98Z" fill="#FFFFFF"/>
<path d="M43.14 19.6C76.99 19.6 110.83 19.6 144.68 19.6C145.08 19.6 145.57 19.74 145.86 19.56C146.32 19.28 146.66 18.78 147.05 18.38C146.68 18.11 146.33 17.78 145.92 17.58C145.69 17.47 145.36 17.56 145.07 17.56C111 17.56 76.92 17.56 42.85 17.56C42.35 17.56 41.85 17.62 41.22 17.65L41.34 19.59H43.15L43.14 19.6Z" fill="#FFFFFF"/>
<path d="M78.51 342.5V334.46H42.78V382.6H78.58V374.64H53.78V359.9H74.91V352.13H53.78V342.5H78.51Z" fill="#FFFFFF"/>
<path d="M166.12 369.44V382.6H177.16L175.79 334.46H161.33L147.69 369.38L133.97 334.46H119.59L118.21 382.6H129.22V369.44L129.49 346.76L143.87 382.6H151.43L165.85 346.73L166.12 369.44Z" fill="#FFFFFF"/>
<path d="M255.68 342.5V334.46H219.95V382.6H255.75V374.64H230.96V359.9H252.08V352.13H230.96V342.5H255.68Z" fill="#FFFFFF"/>
<path d="M326.92 372.69L330.62 382.61H342.32L322.33 334.47H312.13L292.25 382.61H303.95L307.62 372.69H326.92ZM317.24 346.64L323.95 364.66H310.6L317.24 346.64Z" fill="#FFFFFF"/>
<path d="M25.62 457.61C23.92 458.41 20.64 458.81 15.8 458.81C14.56 458.81 13.71 458.81 13.26 458.78C12.81 458.76 12.38 458.73 11.97 458.67C11.28 458.58 10.83 458.36 10.63 458.02C10.43 457.67 10.32 457.2 10.32 456.6V430.44C10.32 428.63 10.66 427.45 11.34 426.9C12.02 426.35 13.36 426.02 15.37 425.92V424.91H0V425.92C2.02 426.06 3.32 426.43 3.91 427.02C4.49 427.61 4.79 428.88 4.79 430.81V455.03C4.79 457.07 4.49 458.35 3.9 458.85C3.31 459.35 2.01 459.71 0 459.92V460.93H29.29L31.95 451.49H30.57C28.97 454.77 27.32 456.81 25.62 457.61Z" fill="#FFFFFF"/>
<path d="M58.91 457.6C57.15 458.41 54.43 458.81 50.74 458.81C47.33 458.81 45.29 458.71 44.6 458.52C43.92 458.32 43.58 457.69 43.58 456.6V443.12H51.98C54.28 443.12 55.76 443.46 56.39 444.14C57.02 444.82 57.55 446.22 57.96 448.33H59.24V435.75H57.96C57.57 437.85 57.06 439.24 56.42 439.93C55.78 440.62 54.3 440.96 51.98 440.96H43.58V428.81C43.58 428.1 43.67 427.62 43.86 427.36C44.05 427.1 44.54 426.97 45.34 426.97H52.75C55.94 426.97 58 427.32 58.92 428.03C59.84 428.74 60.53 430.29 60.99 432.69H62.37L62.18 424.9H33.25V425.91C35.27 426.05 36.57 426.42 37.16 427.01C37.74 427.6 38.04 428.87 38.04 430.8V455.02C38.04 457.06 37.74 458.34 37.15 458.84C36.56 459.34 35.26 459.7 33.25 459.91V460.92H62.68L65.15 451.72H63.63C62.23 454.82 60.65 456.78 58.89 457.58L58.91 457.6Z" fill="#FFFFFF"/>
<path d="M99.45 455.14L85.88 424.27H84.8L73.46 450.99C71.76 455 70.56 457.45 69.86 458.34C69.16 459.24 68.11 459.76 66.71 459.92V460.93H77.5V459.92C76.23 459.81 75.36 459.66 74.9 459.44C74.16 459.09 73.78 458.45 73.78 457.53C73.78 457.07 73.92 456.45 74.19 455.66C74.46 454.88 75.31 452.7 76.72 449.14H91.07L93.25 454.38C93.57 455.12 93.82 455.83 93.99 456.5C94.17 457.17 94.26 457.64 94.26 457.9C94.26 458.69 94.03 459.19 93.57 459.4C93.11 459.6 92.08 459.78 90.49 459.92V460.93H104.34V459.92C103.06 459.74 102.16 459.41 101.61 458.93C101.07 458.45 100.35 457.18 99.44 455.14H99.45ZM77.65 446.95L83.92 431.95L90.16 446.95H77.65Z" fill="#FFFFFF"/>
<path d="M140.92 450.78C142.03 448.33 142.58 445.76 142.58 443.04C142.58 435.51 139.5 430.28 133.33 427.35C129.91 425.72 125.73 424.9 120.78 424.9H106.1V425.91C108.12 426.05 109.42 426.41 110.01 426.97C110.59 427.54 110.89 428.81 110.89 430.8V455.02C110.89 457.06 110.59 458.34 109.99 458.84C109.39 459.34 108.09 459.7 106.11 459.91V460.92H121.24C125.3 460.92 128.72 460.41 131.5 459.38C133.02 458.83 134.5 458.02 135.91 456.96C138.14 455.28 139.81 453.21 140.92 450.76V450.78ZM130.27 456.39C127.52 458.08 124.02 458.92 119.77 458.92C118.4 458.92 117.51 458.78 117.07 458.49C116.64 458.21 116.42 457.62 116.42 456.73V429.03C116.42 428.13 116.64 427.54 117.07 427.27C117.5 427 118.33 426.87 119.56 426.87C124.47 426.87 128.41 428.08 131.39 430.49C134.86 433.31 136.6 437.52 136.6 443.1C136.6 449.36 134.49 453.79 130.27 456.38V456.39Z" fill="#FFFFFF"/>
<path d="M157.23 426.95C157.89 426.37 159.32 426.03 161.54 425.93V424.92H145.43V425.93C147.65 426.04 149.08 426.38 149.74 426.95C150.4 427.53 150.72 428.82 150.72 430.82V455.04C150.72 457.14 150.39 458.44 149.74 458.94C149.08 459.44 147.65 459.77 145.43 459.93V460.94H161.54V459.93C159.32 459.77 157.89 459.44 157.23 458.94C156.57 458.44 156.25 457.14 156.25 455.04V430.82C156.25 428.82 156.58 427.53 157.23 426.95Z" fill="#FFFFFF"/>
<path d="M195.06 461.58H195.99V432.92C195.99 430.07 196.34 428.24 197.03 427.44C197.72 426.64 199.1 426.14 201.18 425.92V424.91H188.39V425.92C190.39 426.1 191.69 426.48 192.27 427.06C193.16 427.96 193.6 429.9 193.6 432.87V450.96L172.58 424.91H163.29V425.92C164.41 425.96 165.24 426.08 165.8 426.31C166.36 426.53 167.04 427.11 167.83 428.05L168.57 428.93V452.92C168.57 455.79 168.25 457.62 167.61 458.41C166.97 459.2 165.53 459.71 163.28 459.94V460.95H176.07V459.94C174.1 459.73 172.84 459.33 172.27 458.75C171.4 457.85 170.97 455.91 170.97 452.93V431.73L195.06 461.59V461.58Z" fill="#FFFFFF"/>
<path d="M226.44 442.67C228.44 442.79 229.74 443.12 230.33 443.63C230.92 444.15 231.22 445.46 231.22 447.56V456.23C231.22 456.83 231.06 457.29 230.74 457.6C230.42 457.91 229.61 458.28 228.32 458.7C227.52 458.97 226.68 459.16 225.79 459.28C224.9 459.4 224.13 459.47 223.48 459.47C219.6 459.47 216.34 458.06 213.7 455.24C211.06 452.42 209.74 448.5 209.74 443.49C209.74 437.41 211.06 433.05 213.71 430.4C216.36 427.75 219.43 426.43 222.92 426.43C226.41 426.43 229.15 427.56 231.3 429.83C232.49 431.12 233.64 433.09 234.76 435.73H236.01L235.59 424.27H234.39C234.16 424.84 233.88 425.27 233.55 425.57C233.22 425.87 232.67 426.02 231.89 426.02C231.59 426.02 230.42 425.73 228.38 425.14C226.34 424.55 224.27 424.26 222.16 424.26C216.33 424.26 211.65 426.25 208.12 430.24C204.91 433.86 203.31 438.2 203.31 443.27C203.31 449.03 205.32 453.62 209.35 457.04C213 460.14 217.49 461.69 222.8 461.69C225.69 461.69 228.7 461.16 231.83 460.09C234.96 459.03 236.52 458.18 236.52 457.54V446.83C236.52 445.06 236.89 443.89 237.64 443.32C238.08 442.97 238.98 442.74 240.33 442.66V441.65H226.45V442.66L226.44 442.67Z" fill="#FFFFFF"/>
<path d="M255.55 424.91V425.92C257.57 426.06 258.87 426.43 259.46 427.02C260.04 427.61 260.34 428.88 260.34 430.81V454.39C260.34 456.74 260.08 458.19 259.56 458.74C259.04 459.3 257.7 459.69 255.56 459.92V460.93H270.79V459.92C268.73 459.76 267.4 459.41 266.79 458.85C266.18 458.3 265.87 457.02 265.87 455.03V443.12H273.77C276.07 443.12 277.55 443.46 278.18 444.14C278.82 444.82 279.34 446.22 279.75 448.33H281.03V435.75H279.75C279.36 437.85 278.85 439.24 278.21 439.93C277.57 440.62 276.09 440.96 273.77 440.96H265.87V428.81C265.87 428.08 265.97 427.6 266.18 427.35C266.39 427.1 266.85 426.98 267.58 426.98H275.05C278.08 426.98 280.11 427.31 281.14 427.97C282.17 428.63 282.87 430.21 283.24 432.69H284.76L284.57 424.9H255.56L255.55 424.91Z" fill="#FFFFFF"/>
<path d="M286.1 425.92C288.32 426.03 289.75 426.37 290.41 426.94C291.07 427.52 291.39 428.81 291.39 430.81V455.03C291.39 457.13 291.06 458.43 290.41 458.93C289.75 459.43 288.32 459.76 286.1 459.92V460.93H302.21V459.92C299.99 459.76 298.56 459.43 297.9 458.93C297.24 458.43 296.92 457.13 296.92 455.03V430.81C296.92 428.81 297.25 427.52 297.9 426.94C298.56 426.36 299.99 426.02 302.21 425.92V424.91H286.1V425.92Z" fill="#FFFFFF"/>
<path d="M334.22 457.34L323 443.52C326.03 443.06 328.43 442.1 330.19 440.65C331.95 439.2 332.84 437.12 332.84 434.41C332.84 430.37 330.85 427.61 326.88 426.1C324.79 425.3 322.17 424.91 319.04 424.91H303.97V425.92C305.94 426.08 307.21 426.46 307.79 427.05C308.37 427.64 308.65 428.9 308.65 430.81V454.39C308.65 456.65 308.39 458.09 307.88 458.7C307.37 459.32 306.06 459.72 303.97 459.92V460.93H319.1V459.92C317.04 459.74 315.71 459.39 315.1 458.85C314.49 458.31 314.18 457.04 314.18 455.02V444.29L316.57 444.16L330.19 460.94H338.96V459.93C337.88 459.82 336.99 459.58 336.3 459.19C335.61 458.8 334.92 458.19 334.23 457.34H334.22ZM314.17 428.87C314.17 428.06 314.34 427.54 314.69 427.32C315.04 427.1 315.98 426.99 317.52 426.99C319.81 426.99 321.64 427.3 323.02 427.92C325.61 429.07 326.9 431.22 326.9 434.37C326.9 437.52 325.45 439.87 322.57 441.06C320.89 441.73 318.09 442.14 314.17 442.28V428.87Z" fill="#FFFFFF"/>
<path d="M382.76 427.03C383.34 426.44 384.65 426.07 386.67 425.93V424.92H375.85L363.65 452.04L351.15 424.92H340.42V425.93C342.62 426.04 344.03 426.39 344.65 426.98C345.27 427.57 345.58 428.85 345.58 430.82V452.92C345.58 455.79 345.26 457.62 344.62 458.41C343.98 459.2 342.54 459.71 340.29 459.94V460.95H353.08V459.94C351.11 459.73 349.84 459.33 349.28 458.74C348.41 457.84 347.98 455.9 347.98 452.92V431.22L361.69 460.95H362.43L376.38 429.95V454.39C376.38 456.69 376.11 458.15 375.57 458.76C375.03 459.37 373.66 459.76 371.46 459.94V460.95H386.69V459.94C384.67 459.76 383.37 459.4 382.78 458.84C382.19 458.28 381.9 457.01 381.9 455.03V430.83C381.9 428.9 382.19 427.64 382.78 427.04L382.76 427.03Z" fill="#FFFFFF"/>
<path d="M153.37 537.06C152.68 537.47 151.48 537.67 149.78 537.67H137.57C144.27 530.78 148.63 525.99 150.63 523.3C152.63 520.61 153.64 517.81 153.64 514.91C153.64 512.18 152.71 509.88 150.86 507.99C149.01 506.1 146.58 505.16 143.59 505.16C141.16 505.16 138.89 505.95 136.77 507.54C134.65 509.13 133.15 511.96 132.26 516.03L133.4 516.27C134.16 514.25 134.96 512.76 135.79 511.78C137.3 510.01 139.26 509.12 141.69 509.12C143.66 509.12 145.35 509.81 146.77 511.18C148.19 512.55 148.9 514.55 148.9 517.17C148.9 520.16 147.74 523.24 145.42 526.39C143.1 529.54 138.69 534.48 132.21 541.21V541.82H153.45L156.4 534.4L155.71 534.08C154.84 535.66 154.06 536.65 153.37 537.06Z" fill="#FFFFFF"/>
<path d="M170.76 505.23C166.24 505.23 162.89 507.47 160.71 511.96C159.1 515.26 158.29 519.19 158.29 523.76C158.29 529.57 159.5 534.17 161.91 537.56C164.16 540.73 167.03 542.32 170.52 542.32C175.62 542.32 179.21 539.39 181.29 533.52C182.39 530.4 182.94 527.08 182.94 523.55C182.94 519.07 182.04 515.09 180.25 511.64C178 507.37 174.83 505.23 170.76 505.23ZM176.21 536.53C175.23 539.38 173.44 540.81 170.84 540.81C167.72 540.81 165.59 538.56 164.46 534.06C163.86 531.65 163.56 528.44 163.56 524.42C163.56 520.13 163.85 516.68 164.44 514.06C165.56 509.14 167.62 506.67 170.63 506.67C173.64 506.67 175.7 509.06 176.8 513.84C177.38 516.41 177.68 519.84 177.68 524.15C177.68 529.55 177.19 533.68 176.22 536.53H176.21Z" fill="#FFFFFF"/>
<path d="M207.82 537.06C207.13 537.47 205.93 537.67 204.23 537.67H192.02C198.72 530.78 203.08 525.99 205.08 523.3C207.08 520.61 208.09 517.81 208.09 514.91C208.09 512.18 207.16 509.88 205.31 507.99C203.46 506.1 201.03 505.16 198.04 505.16C195.61 505.16 193.34 505.95 191.22 507.54C189.1 509.13 187.6 511.96 186.71 516.03L187.85 516.27C188.61 514.25 189.41 512.76 190.24 511.78C191.75 510.01 193.71 509.12 196.14 509.12C198.11 509.12 199.8 509.81 201.22 511.18C202.64 512.55 203.35 514.55 203.35 517.17C203.35 520.16 202.19 523.24 199.87 526.39C197.55 529.54 193.14 534.48 186.66 541.21V541.82H207.9L210.85 534.4L210.16 534.08C209.29 535.66 208.51 536.65 207.82 537.06Z" fill="#FFFFFF"/>
<path d="M235.04 537.06C234.35 537.47 233.15 537.67 231.45 537.67H219.24C225.94 530.78 230.3 525.99 232.3 523.3C234.3 520.61 235.31 517.81 235.31 514.91C235.31 512.18 234.38 509.88 232.53 507.99C230.68 506.1 228.25 505.16 225.26 505.16C222.83 505.16 220.56 505.95 218.44 507.54C216.32 509.13 214.82 511.96 213.93 516.03L215.07 516.27C215.83 514.25 216.63 512.76 217.46 511.78C218.97 510.01 220.93 509.12 223.36 509.12C225.33 509.12 227.02 509.81 228.44 511.18C229.86 512.55 230.57 514.55 230.57 517.17C230.57 520.16 229.41 523.24 227.09 526.39C224.77 529.54 220.36 534.48 213.88 541.21V541.82H235.12L238.07 534.4L237.38 534.08C236.51 535.66 235.73 536.65 235.04 537.06Z" fill="#FFFFFF"/>
<path d="M160.56 3.28C161.61 2.81 163.76 2.57 167.02 2.57L160.81 24.24C160.46 25.47 159.86 26.3 159.01 26.75C158.5 27 157.61 27.18 156.36 27.27V27.93H168.63V27.27C167.14 27.23 166.13 27.11 165.62 26.92C165.11 26.73 164.85 26.23 164.85 25.43C164.85 25.12 164.91 24.71 165.04 24.19C165.11 23.84 165.21 23.45 165.35 23.01L171.3 2.59H173.67C175.42 2.59 176.58 2.9 177.17 3.52C177.76 4.14 178.05 5.08 178.05 6.34L177.95 7.76L178.7 7.86L180.57 1.17H157.92L156.16 7.48L156.91 7.62C158.3 5.21 159.53 3.78 160.58 3.3L160.56 3.28Z" fill="#FFFFFF"/>
<path d="M184.68 1.79C185.07 1.9 185.26 2.25 185.26 2.82C185.26 2.93 185.26 3.04 185.24 3.16C185.22 3.28 185.2 3.43 185.16 3.6L178.19 27.91H181.42C182.38 24.54 183.03 22.39 183.37 21.46C183.71 20.52 184.2 19.53 184.86 18.47C185.82 16.97 187 15.51 188.41 14.07C189.81 12.63 190.97 11.92 191.89 11.92C192.23 11.92 192.52 12.01 192.74 12.2C192.95 12.39 193.05 12.65 193.05 12.98C193.05 13.1 193.04 13.22 193.02 13.33C193 13.44 192.98 13.55 192.95 13.66L189.82 25.41C189.76 25.6 189.73 25.77 189.71 25.92C189.69 26.07 189.68 26.24 189.68 26.41C189.68 27.04 189.87 27.52 190.24 27.85C190.61 28.18 191.08 28.35 191.63 28.35C192.84 28.35 194.05 27.78 195.25 26.65C195.93 26.01 196.75 24.99 197.72 23.6L197.18 23.12C196.2 24.34 195.53 25.12 195.17 25.49C194.59 26.06 194.09 26.35 193.66 26.35C193.45 26.35 193.29 26.29 193.18 26.18C193.07 26.07 193.01 25.9 193.01 25.67C193.01 25.47 193.04 25.25 193.09 25C193.15 24.75 193.21 24.5 193.3 24.23L196.05 14.63C196.15 14.32 196.23 13.97 196.3 13.57C196.37 13.17 196.4 12.84 196.4 12.59C196.4 11.53 196.1 10.8 195.49 10.4C194.88 9.99 194.25 9.79 193.6 9.79C192.01 9.79 190.26 10.78 188.35 12.76C187.26 13.91 185.86 15.73 184.14 18.21L189.27 0.3C189.27 0.18 189.19 0.08 189.02 0C188.95 0 188.85 0.01 188.73 0.04C188.6 0.07 187.72 0.23 186.07 0.54C185.66 0.61 185.19 0.68 184.64 0.75C184.09 0.82 183.37 0.92 182.47 1.04V1.7C183.56 1.65 184.3 1.68 184.69 1.79H184.68Z" fill="#FFFFFF"/>
<path d="M205.5 28.4C207.57 28.4 209.64 27.69 211.7 26.26C212.86 25.46 213.75 24.68 214.38 23.91L213.84 23.45C212.58 24.45 211.62 25.15 210.96 25.53C209.8 26.2 208.7 26.53 207.66 26.53C206.57 26.53 205.62 26.2 204.83 25.55C204.04 24.9 203.64 23.98 203.64 22.8C203.64 22.31 203.68 21.89 203.74 21.57C203.81 21.24 203.93 20.81 204.11 20.26L205.29 20.12C207.86 19.81 210.31 18.98 212.64 17.61C214.97 16.24 216.14 14.6 216.14 12.68C216.14 11.73 215.82 11.02 215.19 10.54C214.55 10.06 213.7 9.82 212.62 9.82C209.7 9.82 206.88 11.21 204.14 13.98C201.37 16.76 199.99 19.63 199.99 22.59C199.99 24.46 200.54 25.89 201.65 26.89C202.76 27.89 204.04 28.39 205.51 28.39L205.5 28.4ZM205.15 17.54C205.58 16.54 206.16 15.49 206.89 14.4C207.58 13.47 208.36 12.63 209.22 11.89C210.08 11.15 210.97 10.78 211.86 10.78C212.34 10.78 212.71 10.93 212.96 11.23C213.21 11.53 213.33 11.93 213.33 12.44C213.33 13.84 212.5 15.25 210.84 16.67C209.18 18.09 207.03 18.99 204.39 19.36C204.65 18.68 204.9 18.07 205.14 17.54H205.15Z" fill="#FFFFFF"/>
</svg>
